mtllib editor_controller_button_menu.sgm.mtl
vt 1 1
o 0
usemtl 0
v -0.01754307933151722 0.0003629645798355341 0.011741259135305882
vn 0.19509051740169525 0.0 -0.9807852506637573
v -0.01754307933151722 0.0028629645239561796 0.011741259135305882
vn 0.19509051740169525 0.0 -0.9807852506637573
v -0.015629662200808525 0.0028629645239561796 0.012121861800551414
vn 0.19509051740169525 0.0 -0.9807852506637573
v -0.015629662200808525 0.0003629645798355341 0.012121861800551414
vn 0.19509051740169525 0.0 -0.9807852506637573
v -0.015629662200808525 0.0003629645798355341 0.012121861800551414
vn 0.5555692911148071 0.0 -0.8314701914787292
v -0.015629662200808525 0.0028629645239561796 0.012121861800551414
vn 0.5555692911148071 0.0 -0.8314701914787292
v -0.014007545076310635 0.0028629645239561796 0.013205723837018013
vn 0.5555692911148071 0.0 -0.8314701914787292
v -0.014007545076310635 0.0003629645798355341 0.013205723837018013
vn 0.5555692911148071 0.0 -0.8314701914787292
v -0.014007545076310635 0.0003629645798355341 0.013205723837018013
vn 0.8314693570137024 0.0 -0.555570662021637
v -0.014007545076310635 0.0028629645239561796 0.013205723837018013
vn 0.8314693570137024 0.0 -0.555570662021637
v -0.012923680245876312 0.0028629645239561796 0.014827840030193329
vn 0.8314693570137024 0.0 -0.555570662021637
v -0.012923680245876312 0.0003629645798355341 0.014827840030193329
vn 0.8314693570137024 0.0 -0.555570662021637
v -0.012923680245876312 0.0003629645798355341 0.014827840030193329
vn 0.9807852506637573 0.0 -0.1950903683900833
v -0.012923680245876312 0.0028629645239561796 0.014827840030193329
vn 0.9807852506637573 0.0 -0.1950903683900833
v -0.01254307758063078 0.0028629645239561796 0.016741257160902023
vn 0.9807852506637573 0.0 -0.1950903683900833
v -0.01254307758063078 0.0003629645798355341 0.016741257160902023
vn 0.9807852506637573 0.0 -0.1950903683900833
v -0.01254307758063078 0.0003629645798355341 0.016741257160902023
vn 0.9807852506637573 0.0 0.1950903683900833
v -0.01254307758063078 0.0028629645239561796 0.016741257160902023
vn 0.9807852506637573 0.0 0.1950903683900833
v -0.012923679314553738 0.0028629645239561796 0.018654674291610718
vn 0.9807852506637573 0.0 0.1950903683900833
v -0.012923679314553738 0.0003629645798355341 0.018654674291610718
vn 0.9807852506637573 0.0 0.1950903683900833
v -0.012923679314553738 0.0003629645798355341 0.018654674291610718
vn 0.8314699530601501 0.0 0.5555696487426758
v -0.012923679314553738 0.0028629645239561796 0.018654674291610718
vn 0.8314699530601501 0.0 0.5555696487426758
v -0.01400754228234291 0.0028629645239561796 0.020276792347431183
vn 0.8314699530601501 0.0 0.5555696487426758
v -0.01400754228234291 0.0003629645798355341 0.020276792347431183
vn 0.8314699530601501 0.0 0.5555696487426758
v -0.01400754228234291 0.0003629645798355341 0.020276792347431183
vn 0.555570662021637 0.0 0.8314693570137024
v -0.01400754228234291 0.0028629645239561796 0.020276792347431183
vn 0.555570662021637 0.0 0.8314693570137024
v -0.015629658475518227 0.0028629645239561796 0.02136065624654293
vn 0.555570662021637 0.0 0.8314693570137024
v -0.015629658475518227 0.0003629645798355341 0.02136065624654293
vn 0.555570662021637 0.0 0.8314693570137024
v -0.015629658475518227 0.0003629645798355341 0.02136065624654293
vn 0.19509096443653107 0.0 0.9807851314544678
v -0.015629658475518227 0.0028629645239561796 0.02136065624654293
vn 0.19509096443653107 0.0 0.9807851314544678
v -0.01754307560622692 0.0028629645239561796 0.021741259843111038
vn 0.19509096443653107 0.0 0.9807851314544678
v -0.01754307560622692 0.0003629645798355341 0.021741259843111038
vn 0.19509096443653107 0.0 0.9807851314544678
v -0.01754307560622692 0.0003629645798355341 0.021741259843111038
vn -0.19509081542491913 0.0 0.9807851314544678
v -0.01754307560622692 0.0028629645239561796 0.021741259843111038
vn -0.19509081542491913 0.0 0.9807851314544678
v -0.019456492736935616 0.0028629645239561796 0.02136065624654293
vn -0.19509081542491913 0.0 0.9807851314544678
v -0.019456492736935616 0.0003629645798355341 0.02136065624654293
vn -0.19509081542491913 0.0 0.9807851314544678
v -0.019456492736935616 0.0003629645798355341 0.02136065624654293
vn -0.5555700063705444 0.0 0.8314697742462158
v -0.019456492736935616 0.0028629645239561796 0.02136065624654293
vn -0.5555700063705444 0.0 0.8314697742462158
v -0.02107860893011093 0.0028629645239561796 0.020276794210076332
vn -0.5555700063705444 0.0 0.8314697742462158
v -0.02107860893011093 0.0003629645798355341 0.020276794210076332
vn -0.5555700063705444 0.0 0.8314697742462158
v -0.02107860893011093 0.0003629645798355341 0.020276794210076332
vn -0.8314689993858337 0.0 0.5555711388587952
v -0.02107860893011093 0.0028629645239561796 0.020276794210076332
vn -0.8314689993858337 0.0 0.5555711388587952
v -0.02216247469186783 0.0028629645239561796 0.018654678016901016
vn -0.8314689993858337 0.0 0.5555711388587952
v -0.02216247469186783 0.0003629645798355341 0.018654678016901016
vn -0.8314689993858337 0.0 0.5555711388587952
v -0.02216247469186783 0.0003629645798355341 0.018654678016901016
vn -0.9807852506637573 0.0 0.1950903683900833
v -0.02216247469186783 0.0028629645239561796 0.018654678016901016
vn -0.9807852506637573 0.0 0.1950903683900833
v -0.022543076425790787 0.0028629645239561796 0.016741260886192322
vn -0.9807852506637573 0.0 0.1950903683900833
v -0.022543076425790787 0.0003629645798355341 0.016741260886192322
vn -0.9807852506637573 0.0 0.1950903683900833
v -0.022543076425790787 0.0003629645798355341 0.016741260886192322
vn -0.9807853102684021 0.0 -0.19509027898311615
v -0.022543076425790787 0.0028629645239561796 0.016741260886192322
vn -0.9807853102684021 0.0 -0.19509027898311615
v -0.02216247469186783 0.0028629645239561796 0.014827842824161053
vn -0.9807853102684021 0.0 -0.19509027898311615
v -0.02216247469186783 0.0003629645798355341 0.014827842824161053
vn -0.9807853102684021 0.0 -0.19509027898311615
v -0.02216247469186783 0.0003629645798355341 0.014827842824161053
vn -0.8314699530601501 0.0 -0.5555698275566101
v -0.02216247469186783 0.0028629645239561796 0.014827842824161053
vn -0.8314699530601501 0.0 -0.5555698275566101
v -0.02107861265540123 0.0028629645239561796 0.013205727562308311
vn -0.8314699530601501 0.0 -0.5555698275566101
v -0.02107861265540123 0.0003629645798355341 0.013205727562308311
vn -0.8314699530601501 0.0 -0.5555698275566101
v -0.012923679314553738 0.0028629645239561796 0.018654674291610718
vn -0.11563146859407425 0.9930258989334106 -0.023000409826636314
v -0.01254307758063078 0.0028629645239561796 0.016741257160902023
vn -0.11563146859407425 0.9930258989334106 -0.023000409826636314
v -0.01754307746887207 0.0022807451896369457 0.016741259023547173
vn -0.11563146859407425 0.9930258989334106 -0.023000409826636314
v -0.02107861265540123 0.0003629645798355341 0.013205727562308311
vn -0.5555710196495056 0.0 -0.8314691185951233
v -0.02107861265540123 0.0028629645239561796 0.013205727562308311
vn -0.5555710196495056 0.0 -0.8314691185951233
v -0.019456496462225914 0.0028629645239561796 0.012121861800551414
vn -0.5555710196495056 0.0 -0.8314691185951233
v -0.019456496462225914 0.0003629645798355341 0.012121861800551414
vn -0.5555710196495056 0.0 -0.8314691185951233
v -0.019456496462225914 0.0003629645798355341 0.012121861800551414
vn -0.19509051740169525 0.0 -0.9807852506637573
v -0.019456496462225914 0.0028629645239561796 0.012121861800551414
vn -0.19509051740169525 0.0 -0.9807852506637573
v -0.01754307933151722 0.0028629645239561796 0.011741259135305882
vn -0.19509051740169525 0.0 -0.9807852506637573
v -0.01754307933151722 0.0003629645798355341 0.011741259135305882
vn -0.19509051740169525 0.0 -0.9807852506637573
v -0.019456496462225914 0.0003629645798355341 0.012121861800551414
vn -0.0 -1.0 0.0
v -0.01754307933151722 0.0003629645798355341 0.011741259135305882
vn -0.0 -1.0 0.0
v -0.015629662200808525 0.0003629645798355341 0.012121861800551414
vn -0.0 -1.0 0.0
v -0.014007545076310635 0.0003629645798355341 0.013205723837018013
vn -0.0 -1.0 0.0
v -0.012923680245876312 0.0003629645798355341 0.014827840030193329
vn -0.0 -1.0 0.0
v -0.01254307758063078 0.0003629645798355341 0.016741257160902023
vn -0.0 -1.0 0.0
v -0.012923679314553738 0.0003629645798355341 0.018654674291610718
vn -0.0 -1.0 0.0
v -0.01400754228234291 0.0003629645798355341 0.020276792347431183
vn -0.0 -1.0 0.0
v -0.015629658475518227 0.0003629645798355341 0.02136065624654293
vn -0.0 -1.0 0.0
v -0.01754307560622692 0.0003629645798355341 0.021741259843111038
vn -0.0 -1.0 0.0
v -0.019456492736935616 0.0003629645798355341 0.02136065624654293
vn -0.0 -1.0 0.0
v -0.02107860893011093 0.0003629645798355341 0.020276794210076332
vn -0.0 -1.0 0.0
v -0.02216247469186783 0.0003629645798355341 0.018654678016901016
vn -0.0 -1.0 0.0
v -0.022543076425790787 0.0003629645798355341 0.016741260886192322
vn -0.0 -1.0 0.0
v -0.02216247469186783 0.0003629645798355341 0.014827842824161053
vn -0.0 -1.0 0.0
v -0.02107861265540123 0.0003629645798355341 0.013205727562308311
vn -0.0 -1.0 0.0
v -0.02107860893011093 0.0028629645239561796 0.020276794210076332
vn 0.06550025194883347 0.9930257797241211 -0.09802796691656113
v -0.019456492736935616 0.0028629645239561796 0.02136065624654293
vn 0.06550025194883347 0.9930257797241211 -0.09802796691656113
v -0.01754307746887207 0.0022807451896369457 0.016741259023547173
vn 0.06550025194883347 0.9930257797241211 -0.09802796691656113
v -0.019456496462225914 0.0028629645239561796 0.012121861800551414
vn 0.06550038605928421 0.9930257797241211 0.09802769869565964
v -0.02107861265540123 0.0028629645239561796 0.013205727562308311
vn 0.06550038605928421 0.9930257797241211 0.09802769869565964
v -0.01754307746887207 0.0022807451896369457 0.016741259023547173
vn 0.06550038605928421 0.9930257797241211 0.09802769869565964
v -0.012923680245876312 0.0028629645239561796 0.014827840030193329
vn -0.09802769869565964 0.9930257797241211 0.06550019979476929
v -0.014007545076310635 0.0028629645239561796 0.013205723837018013
vn -0.09802769869565964 0.9930257797241211 0.06550019979476929
v -0.01754307746887207 0.0022807451896369457 0.016741259023547173
vn -0.09802769869565964 0.9930257797241211 0.06550019979476929
v -0.01754307560622692 0.0028629645239561796 0.021741259843111038
vn -0.02300066500902176 0.9930257797241211 -0.11563204228878021
v -0.015629658475518227 0.0028629645239561796 0.02136065624654293
vn -0.02300066500902176 0.9930257797241211 -0.11563204228878021
v -0.01754307746887207 0.0022807451896369457 0.016741259023547173
vn -0.02300066500902176 0.9930257797241211 -0.11563204228878021
v -0.015629662200808525 0.0028629645239561796 0.012121861800551414
vn -0.02300047129392624 0.9930257797241211 0.11563163995742798
v -0.01754307933151722 0.0028629645239561796 0.011741259135305882
vn -0.02300047129392624 0.9930257797241211 0.11563163995742798
v -0.01754307746887207 0.0022807451896369457 0.016741259023547173
vn -0.02300047129392624 0.9930257797241211 0.11563163995742798
v -0.02216247469186783 0.0028629645239561796 0.014827842824161053
vn 0.11563172936439514 0.9930257797241211 0.023000631481409073
v -0.022543076425790787 0.0028629645239561796 0.016741260886192322
vn 0.11563172936439514 0.9930257797241211 0.023000631481409073
v -0.01754307746887207 0.0022807451896369457 0.016741259023547173
vn 0.11563172936439514 0.9930257797241211 0.023000631481409073
v -0.01400754228234291 0.0028629645239561796 0.020276792347431183
vn -0.09802805632352829 0.9930257797241211 -0.06550005823373795
v -0.012923679314553738 0.0028629645239561796 0.018654674291610718
vn -0.09802805632352829 0.9930257797241211 -0.06550005823373795
v -0.01754307746887207 0.0022807451896369457 0.016741259023547173
vn -0.09802805632352829 0.9930257797241211 -0.06550005823373795
v -0.02216247469186783 0.0028629645239561796 0.018654678016901016
vn 0.09802763164043427 0.9930258989334106 -0.0655001550912857
v -0.02107860893011093 0.0028629645239561796 0.020276794210076332
vn 0.09802763164043427 0.9930258989334106 -0.0655001550912857
v -0.01754307746887207 0.0022807451896369457 0.016741259023547173
vn 0.09802763164043427 0.9930258989334106 -0.0655001550912857
v -0.01754307933151722 0.0028629645239561796 0.011741259135305882
vn 0.023000476881861687 0.9930257797241211 0.11563185602426529
v -0.019456496462225914 0.0028629645239561796 0.012121861800551414
vn 0.023000476881861687 0.9930257797241211 0.11563185602426529
v -0.01754307746887207 0.0022807451896369457 0.016741259023547173
vn 0.023000476881861687 0.9930257797241211 0.11563185602426529
v -0.01254307758063078 0.0028629645239561796 0.016741257160902023
vn -0.11563202738761902 0.9930257797241211 0.023000512272119522
v -0.012923680245876312 0.0028629645239561796 0.014827840030193329
vn -0.11563202738761902 0.9930257797241211 0.023000512272119522
v -0.01754307746887207 0.0022807451896369457 0.016741259023547173
vn -0.11563202738761902 0.9930257797241211 0.023000512272119522
v -0.019456492736935616 0.0028629645239561796 0.02136065624654293
vn 0.02300068363547325 0.9930258989334106 -0.11563156545162201
v -0.01754307560622692 0.0028629645239561796 0.021741259843111038
vn 0.02300068363547325 0.9930258989334106 -0.11563156545162201
v -0.01754307746887207 0.0022807451896369457 0.016741259023547173
vn 0.02300068363547325 0.9930258989334106 -0.11563156545162201
v -0.02107861265540123 0.0028629645239561796 0.013205727562308311
vn 0.0980280190706253 0.9930257797241211 0.0655001625418663
v -0.02216247469186783 0.0028629645239561796 0.014827842824161053
vn 0.0980280190706253 0.9930257797241211 0.0655001625418663
v -0.01754307746887207 0.0022807451896369457 0.016741259023547173
vn 0.0980280190706253 0.9930257797241211 0.0655001625418663
v -0.014007545076310635 0.0028629645239561796 0.013205723837018013
vn -0.06550025194883347 0.9930257797241211 0.09802796691656113
v -0.015629662200808525 0.0028629645239561796 0.012121861800551414
vn -0.06550025194883347 0.9930257797241211 0.09802796691656113
v -0.01754307746887207 0.0022807451896369457 0.016741259023547173
vn -0.06550025194883347 0.9930257797241211 0.09802796691656113
v -0.015629658475518227 0.0028629645239561796 0.02136065624654293
vn -0.06550025194883347 0.9930257797241211 -0.0980277732014656
v -0.01400754228234291 0.0028629645239561796 0.020276792347431183
vn -0.06550025194883347 0.9930257797241211 -0.0980277732014656
v -0.01754307746887207 0.0022807451896369457 0.016741259023547173
vn -0.06550025194883347 0.9930257797241211 -0.0980277732014656
v -0.022543076425790787 0.0028629645239561796 0.016741260886192322
vn 0.11563202738761902 0.9930257797241211 -0.023000700399279594
v -0.02216247469186783 0.0028629645239561796 0.018654678016901016
vn 0.11563202738761902 0.9930257797241211 -0.023000700399279594
v -0.01754307746887207 0.0022807451896369457 0.016741259023547173
vn 0.11563202738761902 0.9930257797241211 -0.023000700399279594
f 1//1 2//2 3//3
f 1//1 3//3 4//4
f 5//5 6//6 7//7
f 5//5 7//7 8//8
f 9//9 10//10 11//11
f 9//9 11//11 12//12
f 13//13 14//14 15//15
f 13//13 15//15 16//16
f 17//17 18//18 19//19
f 17//17 19//19 20//20
f 21//21 22//22 23//23
f 21//21 23//23 24//24
f 25//25 26//26 27//27
f 25//25 27//27 28//28
f 29//29 30//30 31//31
f 29//29 31//31 32//32
f 33//33 34//34 35//35
f 33//33 35//35 36//36
f 37//37 38//38 39//39
f 37//37 39//39 40//40
f 41//41 42//42 43//43
f 41//41 43//43 44//44
f 45//45 46//46 47//47
f 45//45 47//47 48//48
f 49//49 50//50 51//51
f 49//49 51//51 52//52
f 53//53 54//54 55//55
f 53//53 55//55 56//56
f 57//57 58//58 59//59
f 60//60 61//61 62//62
f 60//60 62//62 63//63
f 64//64 65//65 66//66
f 64//64 66//66 67//67
f 68//68 69//69 70//70
f 70//70 71//71 72//72
f 72//72 73//73 74//74
f 74//74 75//75 76//76
f 76//76 77//77 78//78
f 78//78 79//79 80//80
f 80//80 81//81 82//82
f 82//82 83//83 68//68
f 68//68 70//70 72//72
f 72//72 74//74 76//76
f 76//76 78//78 80//80
f 80//80 82//82 68//68
f 68//68 72//72 76//76
f 76//76 80//80 68//68
f 84//84 85//85 86//86
f 87//87 88//88 89//89
f 90//90 91//91 92//92
f 93//93 94//94 95//95
f 96//96 97//97 98//98
f 99//99 100//100 101//101
f 102//102 103//103 104//104
f 105//105 106//106 107//107
f 108//108 109//109 110//110
f 111//111 112//112 113//113
f 114//114 115//115 116//116
f 117//117 118//118 119//119
f 120//120 121//121 122//122
f 123//123 124//124 125//125
f 126//126 127//127 128//128
