mtllib sky.sgm.mtl
o 0
usemtl 0
v -0.0 350.0000305175781 1000.0
vn -0.0 0.0 -1.0
v -587.7852172851562 350.0000305175781 809.0170288085938
vn 0.5877559781074524 0.0 -0.809015154838562
v -587.7852172851562 1000.0 809.0170288085938
vn 0.4497818052768707 -0.6436964273452759 -0.6190984845161438
v -0.0 1000.0 1000.0
vn -0.0 -0.6436964273452759 -0.765251636505127
v -951.0565185546875 350.0000305175781 309.0169677734375
vn 0.9510483145713806 0.0 -0.3089998960494995
v -951.0565185546875 1000.0 309.0169677734375
vn 0.7278054356575012 -0.6436964273452759 -0.23645740747451782
v -951.0564575195312 350.0000305175781 -309.01702880859375
vn 0.9510483145713806 0.0 0.3089998960494995
v -951.0564575195312 1000.0 -309.01702880859375
vn 0.7278054356575012 -0.6436964273452759 0.23645740747451782
v -587.78515625 350.0000305175781 -809.01708984375
vn 0.5877559781074524 0.0 0.809015154838562
v -587.78515625 1000.0 -809.01708984375
vn 0.4497818052768707 -0.6436964273452759 0.6190984845161438
v 8.742277714191005e-05 350.0000305175781 -1000.0
vn -0.0 0.0 1.0
v 8.742277714191005e-05 1000.0 -1000.0
vn -0.0 -0.6436964273452759 0.765251636505127
v 587.7853393554688 350.0000305175781 -809.0169677734375
vn -0.5877559781074524 0.0 0.809015154838562
v 587.7853393554688 1000.0 -809.0169677734375
vn -0.4497818052768707 -0.6436964273452759 0.6190984845161438
v 951.0564575195312 350.0000305175781 -309.01708984375
vn -0.9510483145713806 0.0 0.3089998960494995
v 951.0564575195312 1000.0 -309.01708984375
vn -0.7278054356575012 -0.6436964273452759 0.23645740747451782
v 951.0564575195312 350.0000305175781 309.0171203613281
vn -0.9510483145713806 0.0 -0.3089998960494995
v 951.0564575195312 1000.0 309.0171203613281
vn -0.7278054356575012 -0.6436964273452759 -0.23645740747451782
v 587.7849731445312 1000.0 809.0172119140625
vn -0.4497818052768707 -0.6436964273452759 -0.6190984845161438
v 587.7849731445312 350.0000305175781 809.0172119140625
vn -0.5877559781074524 0.0 -0.809015154838562
v -587.7852172851562 -1000.0 809.0170288085938
vn 0.4497818052768707 0.6436964273452759 -0.6190984845161438
v -0.0 -1000.0 1000.0
vn -0.0 0.6436964273452759 -0.765251636505127
v 587.7849731445312 -1000.0 809.0172119140625
vn -0.4497818052768707 0.6436964273452759 -0.6190984845161438
v 951.0564575195312 -1000.0 309.0171203613281
vn -0.7278054356575012 0.6436964273452759 -0.23645740747451782
v 951.0564575195312 -1000.0 -309.01708984375
vn -0.7278054356575012 0.6436964273452759 0.23645740747451782
v 587.7853393554688 -1000.0 -809.0169677734375
vn -0.4497818052768707 0.6436964273452759 0.6190984845161438
v 8.742277714191005e-05 -1000.0 -1000.0
vn -0.0 0.6436964273452759 0.765251636505127
v -587.78515625 -1000.0 -809.01708984375
vn 0.4497818052768707 0.6436964273452759 0.6190984845161438
v -951.0564575195312 -1000.0 -309.01702880859375
vn 0.7278054356575012 0.6436964273452759 0.23645740747451782
v -951.0565185546875 -1000.0 309.0169677734375
vn 0.7278054356575012 0.6436964273452759 -0.23645740747451782
v 587.7849731445312 -350.0000305175781 809.0172119140625
vn -0.5877559781074524 0.0 -0.809015154838562
v -0.0 -350.0000305175781 1000.0
vn -0.0 0.0 -1.0
v -0.0 0.0 1000.0
vn -0.0 0.0 -1.0
v 587.7849731445312 0.0 809.0172119140625
vn -0.5877559781074524 0.0 -0.809015154838562
v 951.0564575195312 -350.0000305175781 309.0171203613281
vn -0.9510483145713806 0.0 -0.3089998960494995
v 951.0564575195312 0.0 309.0171203613281
vn -0.9510483145713806 0.0 -0.3089998960494995
v 951.0564575195312 -350.0000305175781 -309.01708984375
vn -0.9510483145713806 0.0 0.3089998960494995
v 951.0564575195312 0.0 -309.01708984375
vn -0.9510483145713806 0.0 0.3089998960494995
v 587.7853393554688 -350.0000305175781 -809.0169677734375
vn -0.5877559781074524 0.0 0.809015154838562
v 587.7853393554688 0.0 -809.0169677734375
vn -0.5877559781074524 0.0 0.809015154838562
v 8.742277714191005e-05 -350.0000305175781 -1000.0
vn -0.0 0.0 1.0
v 8.742277714191005e-05 0.0 -1000.0
vn -0.0 0.0 1.0
v -587.78515625 -350.0000305175781 -809.01708984375
vn 0.5877559781074524 0.0 0.809015154838562
v -587.78515625 0.0 -809.01708984375
vn 0.5877559781074524 0.0 0.809015154838562
v -951.0564575195312 -350.0000305175781 -309.01702880859375
vn 0.9510483145713806 0.0 0.3089998960494995
v -951.0564575195312 0.0 -309.01702880859375
vn 0.9510483145713806 0.0 0.3089998960494995
v -951.0565185546875 -350.0000305175781 309.0169677734375
vn 0.9510483145713806 0.0 -0.3089998960494995
v -951.0565185546875 0.0 309.0169677734375
vn 0.9510483145713806 0.0 -0.3089998960494995
v -587.7852172851562 -350.0000305175781 809.0170288085938
vn 0.5877559781074524 0.0 -0.809015154838562
v -587.7852172851562 0.0 809.0170288085938
vn 0.5877559781074524 0.0 -0.809015154838562
v 587.7853393554688 -1000.0 -809.0169677734375
vn -0.4497818052768707 0.6436964273452759 0.6190984845161438
f 1//1 2//2 3//3
f 1//1 3//3 4//4
f 2//2 5//5 6//6
f 2//2 6//6 3//3
f 5//5 7//7 8//8
f 5//5 8//8 6//6
f 7//7 9//9 10//10
f 7//7 10//10 8//8
f 9//9 11//11 12//12
f 9//9 12//12 10//10
f 11//11 13//13 14//14
f 11//11 14//14 12//12
f 13//13 15//15 16//16
f 13//13 16//16 14//14
f 15//15 17//17 18//18
f 15//15 18//18 16//16
f 4//4 3//3 6//6
f 6//6 8//8 10//10
f 10//10 12//12 14//14
f 14//14 16//16 18//18
f 18//18 19//19 4//4
f 4//4 6//6 10//10
f 10//10 14//14 18//18
f 10//10 18//18 4//4
f 17//17 20//20 19//19
f 17//17 19//19 18//18
f 20//20 1//1 4//4
f 20//20 4//4 19//19
f 21//21 22//22 23//23
f 23//23 24//24 25//25
f 25//25 26//26 27//27
f 27//27 28//28 29//29
f 29//29 30//30 21//21
f 21//21 23//23 25//25
f 25//25 27//27 29//29
f 25//25 29//29 21//21
f 31//31 32//32 33//33
f 31//31 33//33 34//34
f 35//35 31//31 34//34
f 35//35 34//34 36//36
f 37//37 35//35 36//36
f 37//37 36//36 38//38
f 39//39 37//37 38//38
f 39//39 38//38 40//40
f 41//41 39//39 40//40
f 41//41 40//40 42//42
f 43//43 41//41 42//42
f 43//43 42//42 44//44
f 45//45 43//43 44//44
f 45//45 44//44 46//46
f 47//47 45//45 46//46
f 47//47 46//46 48//48
f 49//49 47//47 48//48
f 49//49 48//48 50//50
f 32//32 49//49 50//50
f 32//32 50//50 33//33
f 22//22 21//21 49//49
f 22//22 49//49 32//32
f 21//21 30//30 47//47
f 21//21 47//47 49//49
f 30//30 29//29 45//45
f 30//30 45//45 47//47
f 29//29 28//28 43//43
f 29//29 43//43 45//45
f 28//28 27//27 41//41
f 28//28 41//41 43//43
f 27//27 51//51 39//39
f 27//27 39//39 41//41
f 51//51 25//25 37//37
f 51//51 37//37 39//39
f 25//25 24//24 35//35
f 25//25 35//35 37//37
f 24//24 23//23 31//31
f 24//24 31//31 35//35
f 23//23 22//22 32//32
f 23//23 32//32 31//31
f 34//34 33//33 1//1
f 34//34 1//1 20//20
f 36//36 34//34 20//20
f 36//36 20//20 17//17
f 38//38 36//36 17//17
f 38//38 17//17 15//15
f 40//40 38//38 15//15
f 40//40 15//15 13//13
f 42//42 40//40 13//13
f 42//42 13//13 11//11
f 44//44 42//42 11//11
f 44//44 11//11 9//9
f 46//46 44//44 9//9
f 46//46 9//9 7//7
f 48//48 46//46 7//7
f 48//48 7//7 5//5
f 50//50 48//48 5//5
f 50//50 5//5 2//2
f 33//33 50//50 2//2
f 33//33 2//2 1//1
